# xmcd
#
# Track frame offsets: 
#        182
#        10085
#        26452
#        46280
#        59095
#        70845
#        85755
#        114352
#        129517
#        142882
#        156580
#        168595
#        180062
#        192700
#        207632
#        219362
#        232007
#        245352
#        258080
#        271957
#
# Disc length: 3842 seconds
#
# Revision: 3
# Processed by: cddbd v1.5.2PL0 Copyright (c) Steve Scherf et al.
# Submitted via: ExactAudioCopyFreeDBPlugin 1.0
#
DISCID=1b0f0014
DTITLE=Ray Charles - Uh Huh:  His Greatest Hits
DYEAR=1992
DGENRE=Soul
TTITLE0=Busted
TTITLE1=Without Love (There is Nothing)
TTITLE2=That Lucky Old Sun
TTITLE3=My Heart Cries for You
TTITLE4=Baby Don't You Cry
TTITLE5=Smack Dab in the Middle
TTITLE6=Makin Whoopee, Parts 1 and 2
TTITLE7=I'm a Fool to Care
TTITLE8=Crying Time
TTITLE9=Let's Go Get Stoned
TTITLE10=Together Again
TTITLE11=I Chose to Sing the Blues
TTITLE12=I Don't Need No Doctor
TTITLE13=Here We Go Again
TTITLE14=In the Heat of the Night
TTITLE15=Yesterday
TTITLE16=Eleanor Rigby
TTITLE17=If You Were Mine
TTITLE18=Don't Change on Me
TTITLE19=America the Beautiful
EXTD=DCC Compact Classics - Sandstone Music\nCompilation - Remastered\n
EXTD=1992
EXTT0=
EXTT1=
EXTT2=
EXTT3=
EXTT4=
EXTT5=
EXTT6=
EXTT7=
EXTT8=
EXTT9=
EXTT10=
EXTT11=
EXTT12=
EXTT13=
EXTT14=
EXTT15=
EXTT16=
EXTT17=
EXTT18=
EXTT19=
PLAYORDER=
